<?xml version="1.0" standalone="no"?>
<!DOCTYPE svg PUBLIC "-//W3C//DTD SVG 20010904//EN"
 "http://www.w3.org/TR/2001/REC-SVG-20010904/DTD/svg10.dtd">
<svg version="1.0" xmlns="http://www.w3.org/2000/svg"
 width="700.000000pt" height="700.000000pt" viewBox="0 0 700.000000 700.000000"
 preserveAspectRatio="xMidYMid meet">
<metadata>
Created by potrace 1.14, written by Peter Selinger 2001-2017
</metadata>
<g transform="translate(0.000000,700.000000) scale(0.100000,-0.100000)"
fill="#000000" stroke="none">
<path d="M0 3500 l0 -3500 3500 0 3500 0 0 3500 0 3500 -3500 0 -3500 0 0
-3500z m3360 1985 l0 -765 -469 0 -468 0 -67 -50 -66 -51 0 -484 0 -485 -765
0 -765 0 0 1300 0 1300 1300 0 1300 0 0 -765z m2880 -535 l0 -1300 -765 0
-765 0 -2 487 -3 486 -63 49 -63 48 -470 0 -469 0 0 765 0 765 1300 0 1300 0
0 -1300z m-1940 -1450 l0 -800 -800 0 -800 0 0 800 0 800 800 0 800 0 0 -800z
m-2010 -627 l1 -488 61 -47 61 -48 473 0 474 0 0 -765 0 -765 -1300 0 -1300 0
0 1300 0 1300 765 0 765 0 0 -487z m3950 -813 l0 -1300 -1300 0 -1300 0 0 765
0 765 474 0 473 0 61 48 61 47 1 488 0 487 765 0 765 0 0 -1300z"/>
</g>
</svg>
