<?xml version="1.0" encoding="utf-8"?>
<!-- Generator: Adobe Illustrator 26.0.2, SVG Export Plug-In . SVG Version: 6.00 Build 0)  -->
<svg version="1.1" id="Layer_1" xmlns="http://www.w3.org/2000/svg" xmlns:xlink="http://www.w3.org/1999/xlink" x="0px" y="0px"
	 viewBox="0 0 2160 720" style="enable-background:new 0 0 2160 720;" xml:space="preserve">
<style type="text/css">
	.st0{fill:none;}
	.st1{fill:#FFFFFF;}
	.st2{fill:none;stroke:#FFFFFF;stroke-width:4;stroke-miterlimit:10;}
	.st3{font-family:'Arial-BoldMT';}
	.st4{font-size:150px;}
	.st5{letter-spacing:-1;}
	.st6{fill:#00ADEE;}
</style>
<g id="Layer_2_00000125598141743078582140000012293579103323611835_">
	<rect class="st0" width="2160" height="720"/>
</g>
<circle class="st1" cx="608.7" cy="436" r="29.3"/>
<circle class="st1" cx="982.2" cy="244.6" r="29.3"/>
<circle class="st1" cx="780.4" cy="140.6" r="29.3"/>
<circle class="st1" cx="848.6" cy="318.9" r="29.3"/>
<circle class="st1" cx="960.8" cy="111.3" r="29.3"/>
<circle class="st1" cx="1049.9" cy="396.7" r="29.3"/>
<circle class="st1" cx="143.9" cy="186" r="29.3"/>
<circle class="st1" cx="385.4" cy="199.1" r="29.3"/>
<circle class="st1" cx="152.9" cy="424.8" r="29.3"/>
<circle class="st1" cx="293.1" cy="594.7" r="29.3"/>
<circle class="st1" cx="790.1" cy="624" r="29.3"/>
<circle class="st1" cx="579.5" cy="257.6" r="29.3"/>
<circle class="st1" cx="366.4" cy="377.5" r="29.3"/>
<circle class="st1" cx="501.8" cy="594.7" r="29.3"/>
<ellipse transform="matrix(0.3827 -0.9239 0.9239 0.3827 239.1305 549.9841)" class="st1" cx="531.1" cy="96.1" rx="29.3" ry="29.3"/>
<line class="st2" x1="790.1" y1="624" x2="608.7" y2="436"/>
<polyline class="st2" points="385.4,199.1 579.5,257.6 531.1,96.1 "/>
<polyline class="st2" points="960.8,111.3 848.6,318.9 608.7,436 579.5,257.6 780.4,140.6 "/>
<polyline class="st2" points="982.2,244.6 848.6,318.9 1049.9,396.7 "/>
<polyline class="st2" points="143.9,186 366.4,377.5 608.7,436 501.8,594.7 "/>
<polyline class="st2" points="152.9,424.8 366.4,377.5 293.1,594.7 "/>
<circle class="st0" cx="608.7" cy="436" r="17.5"/>
<text transform="matrix(1 0 0 1 1156.26 216.11)" class="st1 st3 st4 st5">WB Sommer</text>
<text transform="matrix(1 0 0 1 1156.26 396.11)" class="st1 st3 st4 st5">Gaussian</text>
<text transform="matrix(1 0 0 1 1156.26 576.11)" class="st1 st3 st4 st5">Investment</text>
<text transform="matrix(1 0 0 1 1169.7 216.06)" class="st6 st3 st4 st5">WB Sommer</text>
<text transform="matrix(1 0 0 1 1169.7 396.06)" class="st6 st3 st4 st5">Gaussian</text>
<text transform="matrix(1 0 0 1 1169.7 576.06)" class="st6 st3 st4 st5">Investment</text>
</svg>
