<?xml version="1.0" encoding="utf-8"?>
<!-- Generator: Adobe Illustrator 26.0.2, SVG Export Plug-In . SVG Version: 6.00 Build 0)  -->
<svg version="1.1" id="Layer_1" xmlns="http://www.w3.org/2000/svg" xmlns:xlink="http://www.w3.org/1999/xlink" x="0px" y="0px"
	 viewBox="0 0 2160 720" style="enable-background:new 0 0 2160 720;" xml:space="preserve">
<style type="text/css">
	.st0{fill:none;}
	.st1{fill:#FFFFFF;}
	.st2{font-family:'Arial-BoldMT';}
	.st3{font-size:150px;}
	.st4{fill:none;stroke:#FFFFFF;stroke-width:5;stroke-miterlimit:10;}
	.st5{font-size:50px;}
	.st6{font-size:50.2494px;}
</style>
<g id="Layer_2_00000035508649176770213480000015051712405832788364_">
	<rect class="st0" width="2160" height="720"/>
</g>
<text transform="matrix(1 0 0 1 1104.85 216.11)" class="st1 st2 st3">Breakdown</text>
<text transform="matrix(1 0 0 1 1104.85 396.11)" class="st1 st2 st3">Investment</text>
<text transform="matrix(1 0 0 1 1104.85 576.11)" class="st1 st2 st3">Barriers</text>
<polyline class="st4" points="297.7,81.7 523.4,104.6 580.8,173.8 668.2,181 723.3,249.9 836.2,269.8 836.2,580 "/>
<polygon class="st4" points="786.2,329.2 786.2,639.5 247.6,584.9 247.6,141.2 473.4,164.1 530.8,233.3 618.1,240.5 673.2,309.4 "/>
<line class="st4" x1="836.2" y1="580" x2="786.2" y2="639.5"/>
<line class="st4" x1="786.2" y1="329.2" x2="836.2" y2="269.8"/>
<line class="st4" x1="246.6" y1="139.7" x2="300.3" y2="80.5"/>
<text transform="matrix(0.9953 9.723549e-02 -9.723549e-02 0.9953 320.01 359.84)" class="st1 st2 st5">C</text>
<text transform="matrix(0.9953 9.723549e-02 -9.723549e-02 0.9953 355.95 363.36)" class="st1 st2 st5">a</text>
<text transform="matrix(0.995 9.950372e-02 -9.950372e-02 0.995 383.6299 366.0603)" class="st1 st2 st6">p</text>
<text transform="matrix(0.9953 9.723549e-02 -9.723549e-02 0.9953 414.02 369.03)" class="st1 st2 st5">i</text>
<text transform="matrix(0.9953 9.723549e-02 -9.723549e-02 0.9953 427.84 370.3801)" class="st1 st2 st5">t</text>
<text transform="matrix(0.9953 9.723549e-02 -9.723549e-02 0.9953 444.41 372.0001)" class="st1 st2 st5">a</text>
<text transform="matrix(0.9953 9.723549e-02 -9.723549e-02 0.9953 472.09 374.7)" class="st1 st2 st5">l</text>
<text transform="matrix(0.995 9.950372e-02 -9.950372e-02 0.995 499.7605 377.4001)" class="st1 st2 st6">G</text>
<text transform="matrix(0.9953 9.723549e-02 -9.723549e-02 0.9953 538.47 381.18)" class="st1 st2 st5">a</text>
<text transform="matrix(0.9953 9.723549e-02 -9.723549e-02 0.9953 566.14 383.8901)" class="st1 st2 st5">i</text>
<text transform="matrix(0.9953 9.723549e-02 -9.723549e-02 0.9953 579.96 385.2401)" class="st1 st2 st5">n</text>
<text transform="matrix(0.9953 9.723549e-02 -9.723549e-02 0.9953 610.37 388.21)" class="st1 st2 st5">s</text>
<text transform="matrix(0.995 9.950372e-02 -9.950372e-02 0.995 651.8698 392.2601)" class="st1 st2 st6">T</text>
<text transform="matrix(0.9953 9.723549e-02 -9.723549e-02 0.9953 678.5699 394.8701)" class="st1 st2 st5">a</text>
<text transform="matrix(0.9953 9.723549e-02 -9.723549e-02 0.9953 706.27 397.57)" class="st1 st2 st5">x</text>
<text transform="matrix(0.9953 9.723549e-02 -9.723549e-02 0.9953 319.99 410.0001)" class="st1 st2 st5">T</text>
<text transform="matrix(0.9953 9.723549e-02 -9.723549e-02 0.9953 350.4 412.96)" class="st1 st2 st5">h</text>
<text transform="matrix(0.9953 9.723549e-02 -9.723549e-02 0.9953 380.8099 415.93)" class="st1 st2 st5">e</text>
<text transform="matrix(0.9953 9.723549e-02 -9.723549e-02 0.9953 422.3199 419.9901)" class="st1 st2 st5">G</text>
<text transform="matrix(0.9953 9.723549e-02 -9.723549e-02 0.9953 461.01 423.77)" class="st1 st2 st5">o</text>
<text transform="matrix(0.9953 9.723549e-02 -9.723549e-02 0.9953 491.42 426.7401)" class="st1 st2 st5">v</text>
<text transform="matrix(0.9953 9.723549e-02 -9.723549e-02 0.9953 519.09 429.44)" class="st1 st2 st5">e</text>
<text transform="matrix(0.9953 9.723549e-02 -9.723549e-02 0.9953 546.78 432.15)" class="st1 st2 st5">r</text>
<text transform="matrix(0.995 9.950372e-02 -9.950372e-02 0.995 566.1298 434.04)" class="st1 st2 st6">n</text>
<text transform="matrix(0.9953 9.723549e-02 -9.723549e-02 0.9953 596.5399 437.01)" class="st1 st2 st5">m</text>
<text transform="matrix(0.9953 9.723549e-02 -9.723549e-02 0.9953 640.7999 441.33)" class="st1 st2 st5">e</text>
<text transform="matrix(0.9953 9.723549e-02 -9.723549e-02 0.9953 668.48 444.04)" class="st1 st2 st5">n</text>
<text transform="matrix(0.9953 9.723549e-02 -9.723549e-02 0.9953 698.88 447)" class="st1 st2 st5">t</text>
<text transform="matrix(0.995 9.950372e-02 -9.950372e-02 0.995 320.0203 460.15)" class="st1 st2 st6">E</text>
<text transform="matrix(0.995 9.950372e-02 -9.950372e-02 0.995 353.2102 463.39)" class="st1 st2 st6">s</text>
<text transform="matrix(0.9953 9.723549e-02 -9.723549e-02 0.9953 380.88 466.09)" class="st1 st2 st5">c</text>
<text transform="matrix(0.995 9.950372e-02 -9.950372e-02 0.995 408.55 468.8004)" class="st1 st2 st6">r</text>
<text transform="matrix(0.995 9.950372e-02 -9.950372e-02 0.995 427.9102 470.6902)" class="st1 st2 st6">o</text>
<text transform="matrix(0.9953 9.723549e-02 -9.723549e-02 0.9953 458.33 473.66)" class="st1 st2 st5">w</text>
<text transform="matrix(0.9953 9.723549e-02 -9.723549e-02 0.9953 320.01 510.3)" class="st1 st2 st5">M</text>
<text transform="matrix(0.9953 9.723549e-02 -9.723549e-02 0.9953 361.45 514.35)" class="st1 st2 st5">o</text>
<text transform="matrix(0.9953 9.723549e-02 -9.723549e-02 0.9953 391.86 517.32)" class="st1 st2 st5">o</text>
<text transform="matrix(0.9953 9.723549e-02 -9.723549e-02 0.9953 422.26 520.29)" class="st1 st2 st5">r</text>
<text transform="matrix(0.995 9.950372e-02 -9.950372e-02 0.995 441.6205 522.1801)" class="st1 st2 st6">e</text>
<text transform="matrix(0.9953 9.723549e-02 -9.723549e-02 0.9953 469.2999 524.88)" class="st1 st2 st5">’</text>
<text transform="matrix(0.9953 9.723549e-02 -9.723549e-02 0.9953 481.2999 526.05)" class="st1 st2 st5">s</text>
<text transform="matrix(0.9953 9.723549e-02 -9.723549e-02 0.9953 522.7899 530.11)" class="st1 st2 st5">L</text>
<text transform="matrix(0.9953 9.723549e-02 -9.723549e-02 0.9953 553.2 533.08)" class="st1 st2 st5">a</text>
<text transform="matrix(0.9953 9.723549e-02 -9.723549e-02 0.9953 580.87 535.78)" class="st1 st2 st5">w</text>
</svg>
