<?xml version="1.0" encoding="utf-8"?>
<!-- Generator: Adobe Illustrator 26.0.2, SVG Export Plug-In . SVG Version: 6.00 Build 0)  -->
<svg version="1.1" id="Layer_1" xmlns="http://www.w3.org/2000/svg" xmlns:xlink="http://www.w3.org/1999/xlink" x="0px" y="0px"
	 viewBox="0 0 2160 720" style="enable-background:new 0 0 2160 720;" xml:space="preserve">
<style type="text/css">
	.st0{fill:none;}
	.st1{fill:#FFFFFF;}
</style>
<g id="Layer_2_00000036247360287196025640000013927636007668368819_">
	<rect class="st0" width="2160" height="720"/>
</g>
<g id="Layer_1_00000160153136933200327670000012745028452485313958_">
	<path class="st1" d="M906.9,297.5h-24.6l-24.5-177.8h25.4c4.7,40.4,11.6,106,13,137.3h0.5c3.4-33.8,12.8-97,18.2-137.3h23.6
		c5.6,41.2,14.9,100,18,136.2h0.6c2-32.9,9.1-94.6,13.8-136.2h24.2l-26.6,177.8h-24.9c-5.3-40.6-14-97.6-17.5-131.2h-0.5
		C921.6,201.3,912.6,257.9,906.9,297.5 M1045.1,119.7c29.4,0,40.7,14.4,40.7,39.7v7.1c0,25.1-8.3,32.6-16.5,35.8
		c8.7,3.1,19.9,10.5,19.9,35.7v13.3c0,30.5-11.8,46.1-42.4,46.1h-35.8V119.7L1045.1,119.7z M1063.2,168.9v-7.4
		c0-15.3-5.5-22-19.6-22h-9.6v53.7h8.9C1058.5,193.2,1063.2,187.8,1063.2,168.9 M1034,277.8h10.1c17.2,0,21.5-7.9,21.5-27v-12
		c0-18.2-5.4-26-22.7-26h-8.9V277.8z M1158.7,256.8c0,14.7,4.7,22.7,16,22.7c11.6,0,15.3-9.7,15.3-24.6c0-19.8-4.3-26.7-23.2-41.5
		c-19.1-15-29.1-24.4-29.1-50.7c0-23.1,6.9-45.8,37.3-45.8c30.2,0.1,36,21,36,41.7v9h-23.7v-8.3c0-13.4-2.4-21.7-12.8-21.7
		s-13,9-13,21.7c0,14.2,2.8,20.4,18.7,32.2c25.9,19.2,33.9,30.2,33.9,59.9c0,25.1-8.1,48.5-40,48.5c-31.1,0-39.2-20-39.2-43.5v-10.4
		h23.8L1158.7,256.8z M1307.4,255.8c0,29.5-14.3,43.7-38.6,43.7c-24.8,0-37.9-14.4-37.9-43.3v-55.8c0-28.2,15.6-42,38.7-42
		c24,0,37.8,15.1,37.8,42.8V255.8z M1254.8,200.2v56.9c0,12.7,4,21.3,14.5,21.3c9.7,0,14.2-7,14.2-21.7V200
		c0-11.8-3.5-20.3-14.3-20.3C1259.1,179.7,1254.8,186.9,1254.8,200.2 M1327.3,297.5v-97.3c0-26.2,0-33.2-0.3-39.6h22.8
		c0.6,4.1,0.9,8.2,0.9,12.4c4.5-9.2,12.5-14.5,23.8-14.5c10.9,0,18.4,4.7,21.6,15.2c4.6-7.9,11.7-15.2,25.8-15.2s26.5,6.9,26.5,33.5
		v105.5h-23.8v-101c0-10-2.3-16.5-11.3-16.5c-10.9,0-13.4,9.1-13.4,23.1v94.3h-24V197.4c0-13.4-3.7-17.3-11.4-17.3
		c-10.9,0-13.3,9.2-13.3,23.4v94.1L1327.3,297.5z M1472.4,297.5v-97.3c0-26.2,0-33.2-0.3-39.6h22.8c0.6,4.1,0.9,8.2,0.9,12.4
		c4.5-9.2,12.5-14.5,23.8-14.5c10.9,0,18.4,4.7,21.6,15.2c4.6-7.9,11.7-15.2,25.8-15.2s26.5,6.9,26.5,33.5v105.5h-23.8v-101
		c0-10-2.3-16.5-11.3-16.5c-10.9,0-13.5,9.1-13.5,23.1v94.3h-24V197.4c0-13.4-3.7-17.3-11.4-17.3c-10.9,0-13.3,9.2-13.3,23.4v94.1
		L1472.4,297.5z M1636.9,256c0,11.8,2.6,23.4,14.2,23.4s13.5-10.1,13.5-21.3v-0.9h23.3v0.7c0,15-3.3,41.6-36.4,41.6
		c-32.2,0-37.9-20.4-37.9-48.1v-47.4c0-19.6,6.5-45.6,38-45.6c28,0,36.8,19.6,36.8,45.5v30.9h-51.4L1636.9,256z M1637.1,216h28.4
		v-15.3c0-12.7-2.6-21.9-14-21.9c-10.5,0-14.4,8.1-14.4,22L1637.1,216z M1707.4,297.5v-90.4c0-22.4,0.2-33.2-0.3-46.4h22.6
		c0.3,3,0.7,13.7,0.7,21.8c5.3-17.8,17.2-23.6,29.6-23.8v29.4c-16.2,0.1-28.8,6.4-28.8,33.1v76.3L1707.4,297.5z"/>
	<path class="st1" d="M895.9,521.6h-25V343.8h25V521.6z M919.9,384.7h23.8c0.6,4.3,1,8.6,1,13c4.2-8.8,12.2-15.1,26.4-15.1
		c16.7,0,29,9.5,29,35v103.9H975v-99.4c0-12.7-4.5-18-13.5-18c-10.9,0-16.4,5.4-16.4,27v90.4h-25v-94.9
		C920.1,399.1,920.1,391.2,919.9,384.7 M1057.4,494.8h0.3c2.4-26.7,14.4-83.3,18.9-110.1h25.1L1071,521.5h-28.3l-30-136.8h26.7
		C1043.9,410,1054,466.5,1057.4,494.8 M1136.1,480c0,11.8,2.7,23.4,14.9,23.4s14.2-10.1,14.2-21.3v-0.9h24.4v0.8
		c0,15-3.5,41.6-38.2,41.6c-33.8,0-39.7-20.4-39.7-48.1v-47.4c0-19.6,6.8-45.6,39.8-45.6c29.4,0,38.6,19.6,38.6,45.5V459h-53.9V480z
		 M1136.3,440h29.7v-15.3c0-12.7-2.7-21.9-14.6-21.9c-11,0-15.1,8.1-15.1,22V440z M1204.3,479.6h25.3v6.1c0,10.5,3.8,17.7,13.4,17.7
		c9.1,0,12.8-5.3,12.8-15.9s-3.2-16.9-20.2-27.4c-19.5-12.1-28.8-21.9-28.8-41.2c0-21.9,11.9-36.3,36.2-36.3c26.4,0,36,14.8,36,37.9
		v5.8h-24.2v-8.1c0-10.4-3.4-15.4-11.7-15.4c-8.1,0-11.3,5.5-11.3,14.1c0,8.9,3,12.9,16.6,21.3c23.4,14.4,32.7,24,32.7,46.5
		c0,25.6-12.9,39-38.9,39c-30.5,0-37.8-18.7-37.8-37.9L1204.3,479.6z M1288.3,405.7v-21h15.7v-33.1h25v33.2h18.9v21H1329v85.5
		c0,6.7,1.1,12.5,9.9,12.5c2.8,0,5.6-0.2,8.3-0.8v18.1c-4.6,2-11.5,2.5-16.6,2.5c-16.2,0-26.5-5.5-26.5-28v-89.8L1288.3,405.7z
		 M1362,521.5v-97.2c0-26.2,0-33.2-0.3-39.6h23.8c0.6,4.1,0.9,8.2,0.9,12.4c4.7-9.2,13.1-14.5,24.9-14.5c11.4,0,19.3,4.7,22.7,15.2
		c4.8-7.9,12.2-15.2,27.1-15.2s27.8,6.9,27.8,33.5v105.5h-25v-101c0-10-2.4-16.5-11.8-16.5c-11.5,0-14.1,9.1-14.1,23.1v94.3H1413
		V421.5c0-13.4-3.9-17.3-12-17.3c-11.4,0-13.9,9.2-13.9,23.4v94.1L1362,521.5z M1534.5,480c0,11.8,2.7,23.4,14.9,23.4
		s14.2-10.1,14.2-21.3v-0.9h24.4v0.8c0,15-3.5,41.6-38.2,41.6c-33.8,0-39.7-20.4-39.7-48.1v-47.4c0-19.6,6.8-45.6,39.8-45.6
		c29.4,0,38.6,19.6,38.6,45.5V459h-53.9L1534.5,480z M1534.7,440h29.7v-15.3c0-12.7-2.7-21.9-14.6-21.9c-11,0-15.1,8.1-15.1,22V440z
		 M1608.1,384.7h23.9c0.6,4.3,1,8.6,1,13c4.2-8.8,12.2-15.1,26.4-15.1c16.7,0,29,9.5,29,35v104h-25v-99.4c0-12.7-4.6-18-13.5-18
		c-10.9,0-16.4,5.4-16.4,27v90.4h-25v-94.9c0-27.7,0-35.5-0.3-42 M1700.2,405.7v-21h15.7v-33.1h24.9v33.2h18.9v21h-18.9v85.5
		c0,6.7,1.1,12.5,9.9,12.5c2.8,0,5.6-0.2,8.3-0.8v18.1c-4.6,2-11.5,2.5-16.6,2.5c-16.2,0-26.5-5.5-26.5-28v-89.8L1700.2,405.7z"/>
	<rect x="399.5" y="559.8" class="st1" width="1361.1" height="44.1"/>
	<polyline class="st1" points="522.5,410.1 592.8,410.1 592.8,524 399.5,524 399.5,330.6 513.3,330.6 513.3,402.8 	"/>
	<rect x="543.8" y="260.7" class="st1" width="119" height="119"/>
	<polyline class="st1" points="684,410.1 613.7,410.1 613.7,524 807,524 807,330.6 693.1,330.6 693.1,402.8 	"/>
	<polyline class="st1" points="522.5,229.9 592.8,229.9 592.8,116.1 399.5,116.1 399.5,309.4 513.3,309.4 513.3,237.2 	"/>
	<polyline class="st1" points="684,229.9 613.7,229.9 613.7,116.1 807,116.1 807,309.4 693.1,309.4 693.1,237.2 	"/>
</g>
</svg>
